<svg viewBox="0 0 400 400" width="200" height="200" stroke-width="10" xmlns="http://www.w3.org/2000/svg" stroke-linecap="round" fill="none" stroke="black">
    <path d="M 150 375 H 250 A 10,10,0,0,0,250 355 H 150 A 10,10,0,0,0,150,375 Z M 135 355 A 15,12.5,0,0,1,135,330 H 265 A 15,12.5,0,0,1,265,355 Z M 135 330 A 15,12.5,0,0,1,135,305 H 265 A 15,12.5,0,0,1,265,330 Z M 135 305 V 285 A 120,140,0,1,1,265,285 V 305 Z M 200 305 V 250 A 20,20,0,1,1,200,215 V 115 A 20,20,0,1,0,200,80 V 30 M 80 165 H 120 A 20,20,0,1,1,155,165 H 240 A 20,20,0,1,0,275,165 H 320"/>
</svg>